%
M48
M72
T01C0.0140
T02C0.0150
T03C0.0197
T04C0.0200
T05C0.0256
T06C0.0276
T07C0.0400
%
T01
X11010Y6910
X11610Y6310
X11910Y6010
X11510Y5710
X13210Y6310
X13810Y6210
X13410Y5710
X14910Y7010
X15430Y6890
X16310Y7010
X15610Y8010
X16310Y8610
X15710Y9510
X15710Y9910
X16310Y10210
X15110Y10810
X13310Y11710
X14410Y12110
X13110Y11010
X12510Y11010
X11010Y11010
X10910Y10210
X10910Y9510
X10910Y8810
X9410Y8810
X9410Y9510
X9410Y10210
X9410Y10910
X9410Y11610
X11710Y12110
X14170Y9410
X14520Y9060
X13710Y8410
X12610Y8210
X13210Y7510
X13610Y7610
X13110Y9310
X16910Y11810
X17810Y11710
X18610Y11110
X19133Y11433
X20510Y11010
X18310Y9510
X18710Y9110
X20410Y7610
X18580Y6750
X17040Y5980
X16310Y5410
X19410Y4410
X20110Y12910
X18410Y13210
T02
X14410Y9710
T03
X14256Y13633
X13764Y13633
X13272Y13633
X12780Y13633
X14748Y13633
X15241Y13633
X12048Y4987
X11556Y4987
X11064Y4987
X10572Y4987
T04
X12110Y13710
T05
X14410Y5610
X14910Y5610
X14910Y5110
X14410Y5110
X14410Y4610
X14910Y4610
T06
X18910Y7110
X19410Y7110
X19910Y7110
X21410Y9610
X21410Y10110
X21410Y10610
X21410Y11110
X21410Y11610
X21410Y12110
X21410Y12610
X18110Y13710
X17610Y13710
X17110Y13710
X16610Y13710
T07
X6510Y4810
X7510Y4810
X8510Y4810
X8510Y5810
X7510Y5810
X6510Y5810
X6510Y6810
X7510Y6810
X8510Y6810
X8510Y7810
X7510Y7810
X6510Y7810
X6510Y8810
X7510Y8810
X8510Y8810
X8510Y9810
X7510Y9810
X6510Y9810
X6510Y10810
X7510Y10810
X8510Y10810
X8510Y11810
X7510Y11810
X6510Y11810
X6510Y12810
X7510Y12810
X8510Y12810
X8510Y13810
X7510Y13810
X6510Y13810
M30
