G75*
%MOIN*%
%OFA0B0*%
%FSLAX25Y25*%
%IPPOS*%
%LPD*%
%AMOC8*
5,1,8,0,0,1.08239X$1,22.5*
%
%ADD10C,0.08200*%
%ADD11C,0.05556*%
%ADD12C,0.05359*%
%ADD13C,0.04769*%
%ADD14C,0.03800*%
%ADD15C,0.04400*%
%ADD16C,0.03900*%
D10*
X0065102Y0048102D03*
X0075102Y0048102D03*
X0085102Y0048102D03*
X0085102Y0058102D03*
X0075102Y0058102D03*
X0065102Y0058102D03*
X0065102Y0068102D03*
X0075102Y0068102D03*
X0085102Y0068102D03*
X0085102Y0078102D03*
X0075102Y0078102D03*
X0065102Y0078102D03*
X0065102Y0088102D03*
X0075102Y0088102D03*
X0085102Y0088102D03*
X0085102Y0098102D03*
X0075102Y0098102D03*
X0065102Y0098102D03*
X0065102Y0108102D03*
X0075102Y0108102D03*
X0085102Y0108102D03*
X0085102Y0118102D03*
X0075102Y0118102D03*
X0065102Y0118102D03*
X0065102Y0128102D03*
X0075102Y0128102D03*
X0085102Y0128102D03*
X0085102Y0138102D03*
X0075102Y0138102D03*
X0065102Y0138102D03*
D11*
X0166102Y0137102D03*
X0171102Y0137102D03*
X0176102Y0137102D03*
X0181102Y0137102D03*
X0214102Y0126102D03*
X0214102Y0121102D03*
X0214102Y0116102D03*
X0214102Y0111102D03*
X0214102Y0106102D03*
X0214102Y0101102D03*
X0214102Y0096102D03*
X0199102Y0071102D03*
X0194102Y0071102D03*
X0189102Y0071102D03*
D12*
X0149102Y0056102D03*
X0144102Y0056102D03*
X0144102Y0051102D03*
X0149102Y0051102D03*
X0149102Y0046102D03*
X0144102Y0046102D03*
D13*
X0120484Y0047890D02*
X0120484Y0051858D01*
X0115563Y0051858D02*
X0115563Y0047890D01*
X0110642Y0047890D02*
X0110642Y0051858D01*
X0105720Y0051858D02*
X0105720Y0047890D01*
X0127799Y0134346D02*
X0127799Y0138315D01*
X0132720Y0138315D02*
X0132720Y0134346D01*
X0137642Y0134346D02*
X0137642Y0138315D01*
X0142563Y0138315D02*
X0142563Y0134346D01*
X0147484Y0134346D02*
X0147484Y0138315D01*
X0152406Y0138315D02*
X0152406Y0134346D01*
D14*
X0144102Y0121102D03*
X0133102Y0117102D03*
X0131102Y0110102D03*
X0125102Y0110102D03*
X0110102Y0110102D03*
X0109102Y0102102D03*
X0109102Y0095102D03*
X0109102Y0088102D03*
X0094102Y0088102D03*
X0094102Y0095102D03*
X0094102Y0102102D03*
X0094102Y0109102D03*
X0094102Y0116102D03*
X0117102Y0121102D03*
X0151102Y0108102D03*
X0163102Y0102102D03*
X0157102Y0099102D03*
X0157102Y0095102D03*
X0145202Y0090602D03*
X0141702Y0094102D03*
X0131102Y0093102D03*
X0137102Y0084102D03*
X0126102Y0082102D03*
X0132102Y0075102D03*
X0136102Y0076102D03*
X0149102Y0070102D03*
X0154302Y0068902D03*
X0163102Y0070102D03*
X0156102Y0080102D03*
X0163102Y0086102D03*
X0183102Y0095102D03*
X0187102Y0091102D03*
X0204102Y0076102D03*
X0185802Y0067502D03*
X0170402Y0059802D03*
X0163102Y0054102D03*
X0138102Y0062102D03*
X0132102Y0063102D03*
X0134102Y0057102D03*
X0119102Y0060102D03*
X0116102Y0063102D03*
X0110102Y0069102D03*
X0115102Y0057102D03*
X0194102Y0044102D03*
X0205102Y0110102D03*
X0191328Y0114328D03*
X0186102Y0111102D03*
X0178102Y0117102D03*
X0169102Y0118102D03*
X0184102Y0132102D03*
X0201102Y0129102D03*
D15*
X0121102Y0137102D03*
D16*
X0144102Y0097102D03*
M02*
