G75*
%MOIN*%
%OFA0B0*%
%FSLAX25Y25*%
%IPPOS*%
%LPD*%
%AMOC8*
5,1,8,0,0,1.08239X$1,22.5*
%
%ADD10R,0.03346X0.03543*%
%ADD11R,0.03543X0.03346*%
%ADD12R,0.06299X0.05512*%
%ADD13C,0.01181*%
%ADD14R,0.05512X0.06299*%
%ADD15R,0.05118X0.03543*%
%ADD16R,0.03000X0.05000*%
%ADD17R,0.02362X0.02362*%
%ADD18R,0.05000X0.02200*%
%ADD19R,0.02200X0.05000*%
%ADD20R,0.02165X0.04724*%
%ADD21R,0.03346X0.01496*%
%ADD22R,0.01496X0.03346*%
%ADD23C,0.01772*%
%ADD24R,0.01969X0.02362*%
D10*
X0099819Y0081102D03*
X0104386Y0081102D03*
X0104386Y0088102D03*
X0099819Y0088102D03*
X0099819Y0095102D03*
X0104386Y0095102D03*
X0104386Y0102102D03*
X0099819Y0102102D03*
X0099819Y0109102D03*
X0104386Y0109102D03*
X0104386Y0116102D03*
X0099819Y0116102D03*
X0124819Y0121102D03*
X0129386Y0121102D03*
X0129386Y0127102D03*
X0124819Y0127102D03*
X0137819Y0127102D03*
X0142386Y0127102D03*
X0149819Y0121102D03*
X0154386Y0121102D03*
X0198819Y0121102D03*
X0203386Y0121102D03*
D11*
X0190102Y0122819D03*
X0184102Y0122819D03*
X0184102Y0127386D03*
X0190102Y0127386D03*
X0190102Y0135819D03*
X0190102Y0140386D03*
X0178102Y0127386D03*
X0172102Y0127386D03*
X0166102Y0127386D03*
X0166102Y0122819D03*
X0172102Y0122819D03*
X0178102Y0122819D03*
X0212102Y0135819D03*
X0212102Y0140386D03*
X0217102Y0140386D03*
X0217102Y0135819D03*
X0158102Y0089386D03*
X0158102Y0084819D03*
X0187102Y0085386D03*
X0192102Y0085386D03*
X0197102Y0085386D03*
X0203102Y0085386D03*
X0209102Y0085386D03*
X0209102Y0080819D03*
X0203102Y0080819D03*
X0197102Y0080819D03*
X0192102Y0080819D03*
X0187102Y0080819D03*
X0189102Y0062386D03*
X0189102Y0057819D03*
X0199102Y0057819D03*
X0199102Y0062386D03*
X0215102Y0080819D03*
X0215102Y0085386D03*
X0132102Y0050386D03*
X0132102Y0045819D03*
D12*
X0112102Y0127591D03*
X0101102Y0127591D03*
X0101102Y0138614D03*
X0112102Y0138614D03*
D13*
X0187724Y0052933D02*
X0190480Y0052933D01*
X0190480Y0050177D01*
X0187724Y0050177D01*
X0187724Y0052933D01*
X0187724Y0051357D02*
X0190480Y0051357D01*
X0190480Y0052537D02*
X0187724Y0052537D01*
X0187724Y0046028D02*
X0190480Y0046028D01*
X0190480Y0043272D01*
X0187724Y0043272D01*
X0187724Y0046028D01*
X0187724Y0044452D02*
X0190480Y0044452D01*
X0190480Y0045632D02*
X0187724Y0045632D01*
X0197724Y0046028D02*
X0200480Y0046028D01*
X0200480Y0043272D01*
X0197724Y0043272D01*
X0197724Y0046028D01*
X0197724Y0044452D02*
X0200480Y0044452D01*
X0200480Y0045632D02*
X0197724Y0045632D01*
X0197724Y0052933D02*
X0200480Y0052933D01*
X0200480Y0050177D01*
X0197724Y0050177D01*
X0197724Y0052933D01*
X0197724Y0051357D02*
X0200480Y0051357D01*
X0200480Y0052537D02*
X0197724Y0052537D01*
D14*
X0164803Y0048102D03*
X0164803Y0064102D03*
X0164803Y0080102D03*
X0164803Y0096102D03*
D15*
X0177992Y0092362D03*
X0177992Y0099843D03*
X0177992Y0083843D03*
X0177992Y0076362D03*
X0177992Y0067843D03*
X0177992Y0060362D03*
X0177992Y0051843D03*
X0177992Y0044362D03*
D16*
X0209602Y0044535D03*
X0214602Y0044535D03*
X0214602Y0073669D03*
X0209602Y0073669D03*
D17*
X0174661Y0107461D03*
X0169543Y0107461D03*
X0162661Y0107461D03*
X0157543Y0107461D03*
X0160102Y0114744D03*
X0172102Y0114744D03*
D18*
X0150002Y0097126D03*
X0150002Y0093976D03*
X0150002Y0090827D03*
X0150002Y0087677D03*
X0150002Y0084528D03*
X0150002Y0081378D03*
X0150002Y0078228D03*
X0150002Y0075079D03*
X0116202Y0075079D03*
X0116202Y0078228D03*
X0116202Y0081378D03*
X0116202Y0084528D03*
X0116202Y0087677D03*
X0116202Y0090827D03*
X0116202Y0093976D03*
X0116202Y0097126D03*
D19*
X0122079Y0103002D03*
X0125228Y0103002D03*
X0128378Y0103002D03*
X0131528Y0103002D03*
X0134677Y0103002D03*
X0137827Y0103002D03*
X0140976Y0103002D03*
X0144126Y0103002D03*
X0144126Y0069202D03*
X0140976Y0069202D03*
X0137827Y0069202D03*
X0134677Y0069202D03*
X0131528Y0069202D03*
X0128378Y0069202D03*
X0125228Y0069202D03*
X0122079Y0069202D03*
D20*
X0197362Y0129984D03*
X0204843Y0129984D03*
X0204843Y0140221D03*
X0201102Y0140221D03*
X0197362Y0140221D03*
D21*
X0202878Y0107024D03*
X0202878Y0105055D03*
X0202878Y0103087D03*
X0202878Y0101118D03*
X0202878Y0099150D03*
X0202878Y0097181D03*
X0187327Y0097181D03*
X0187327Y0099150D03*
X0187327Y0101118D03*
X0187327Y0103087D03*
X0187327Y0105055D03*
X0187327Y0107024D03*
D22*
X0190181Y0109878D03*
X0192150Y0109878D03*
X0194118Y0109878D03*
X0196087Y0109878D03*
X0198055Y0109878D03*
X0200024Y0109878D03*
X0200024Y0094327D03*
X0198055Y0094327D03*
X0196087Y0094327D03*
X0194118Y0094327D03*
X0192150Y0094327D03*
X0190181Y0094327D03*
D23*
X0104966Y0064378D02*
X0099238Y0064378D01*
X0099238Y0069102D02*
X0104966Y0069102D01*
X0104966Y0073827D02*
X0099238Y0073827D01*
D24*
X0150134Y0127102D03*
X0154071Y0127102D03*
M02*
